<svg width="1130" height="757" viewBox="0 0 1130 757" fill="none" xmlns="http://www.w3.org/2000/svg">
<path d="M749.371 673.992H364.537C351.917 673.992 339.814 668.978 330.891 660.055C321.967 651.131 316.954 639.028 316.954 626.409V450.097C316.954 447.536 317.476 445.003 318.487 442.651C319.498 440.299 320.978 438.177 322.836 436.416L526.76 243.113C534.914 235.384 545.72 231.076 556.954 231.076C568.188 231.076 578.995 235.384 587.148 243.113L781.579 427.417C786.436 432.021 790.304 437.566 792.947 443.714C795.591 449.863 796.954 456.485 796.954 463.177V626.409C796.954 632.657 795.723 638.845 793.332 644.618C790.941 650.391 787.436 655.636 783.017 660.055C778.599 664.473 773.353 667.978 767.58 670.37C761.807 672.761 755.62 673.992 749.371 673.992V673.992Z" fill="#3F3D56"/>
<path opacity="0.1" d="M316.954 452.991H792.954V645.259C792.954 652.879 789.927 660.188 784.539 665.576C779.15 670.964 771.842 673.991 764.222 673.991H345.686C338.066 673.991 330.758 670.964 325.37 665.576C319.981 660.188 316.954 652.879 316.954 645.259V452.991V452.991Z" fill="black"/>
<path d="M707.273 301.491H405.635C391.176 301.491 379.454 313.213 379.454 327.673V629.31C379.454 643.77 391.176 655.491 405.635 655.491H707.273C721.732 655.491 733.454 643.77 733.454 629.31V327.673C733.454 313.213 721.732 301.491 707.273 301.491Z" fill="#294B70"/>
<path opacity="0.1" d="M733.454 460.942V655.492H379.454V460.942L556.454 546.492L733.454 460.942Z" fill="black"/>
<path d="M556.454 557.492L329.66 447.875C328.258 447.197 326.706 446.886 325.15 446.971C323.594 447.057 322.086 447.536 320.766 448.364C319.446 449.192 318.358 450.342 317.604 451.705C316.85 453.069 316.454 454.601 316.454 456.159V644.759C316.454 648.532 317.197 652.269 318.641 655.755C320.085 659.241 322.202 662.408 324.87 665.076C327.538 667.744 330.705 669.86 334.191 671.304C337.677 672.748 341.413 673.492 345.186 673.492H767.722C771.495 673.492 775.231 672.748 778.717 671.304C782.203 669.86 785.371 667.744 788.039 665.076C790.707 662.408 792.823 659.241 794.267 655.755C795.711 652.269 796.454 648.532 796.454 644.759V459.39C796.454 457.489 795.971 455.619 795.051 453.955C794.131 452.291 792.803 450.889 791.193 449.878C789.582 448.868 787.741 448.283 785.843 448.179C783.945 448.074 782.051 448.453 780.339 449.28L556.454 557.492Z" fill="#3F3D56"/>
<path d="M508.954 333.991H409.954V347.991H508.954V333.991Z" fill="#F2F2F2"/>
<path d="M695.954 384.991H401.954V392.991H695.954V384.991Z" fill="#F2F2F2"/>
<path d="M695.954 411.991H401.954V419.991H695.954V411.991Z" fill="#F2F2F2"/>
<path d="M695.954 438.991H401.954V446.991H695.954V438.991Z" fill="#F2F2F2"/>
<path d="M136.954 673.492H960.954" stroke="#3F3D56" stroke-miterlimit="10"/>
<path d="M76 550.353C76 609.313 112.989 657.023 158.699 657.023Z" fill="#46455B"/>
<path d="M158.699 657.023C158.699 597.401 199.976 549.155 250.987 549.155Z" fill="#294B70"/>
<path d="M105.964 555.698C105.964 611.704 129.55 657.023 158.699 657.023Z" fill="#294B70"/>
<path d="M158.699 657.023C158.699 580.839 206.409 519.191 265.369 519.191Z" fill="#46455B"/>
<path d="M141.302 657.775C141.302 657.775 153.03 657.414 156.564 654.897C160.099 652.38 174.605 649.375 175.482 653.412C176.359 657.448 193.107 673.488 179.866 673.594C166.625 673.701 149.1 671.532 145.572 669.383C142.044 667.234 141.302 657.775 141.302 657.775Z" fill="#A8A8A8"/>
<path opacity="0.2" d="M180.102 672.189C166.861 672.296 149.336 670.127 145.808 667.978C143.122 666.341 142.051 660.469 141.693 657.76C141.445 657.771 141.302 657.775 141.302 657.775C141.302 657.775 142.044 667.234 145.572 669.383C149.1 671.532 166.625 673.701 179.866 673.594C183.688 673.564 185.008 672.204 184.936 670.19C184.405 671.406 182.947 672.166 180.102 672.189Z" fill="black"/>
<path d="M795.713 227.771C795.112 233.125 791.028 237.438 789.515 242.61C787.237 250.393 791.175 258.746 796.563 264.807C800.91 269.647 806.174 273.576 812.05 276.366C817.927 279.156 824.299 280.752 830.797 281.062C832.705 281.23 834.629 281.02 836.457 280.445C838.089 279.788 839.558 278.784 840.763 277.502C844.82 273.428 846.998 267.784 847.866 262.1C848.734 256.416 848.397 250.626 848.057 244.886C848.059 243.7 847.843 242.523 847.421 241.414C846.868 240.358 846.108 239.424 845.187 238.667C842.266 235.987 839.048 233.65 835.597 231.701C834.037 231.001 832.661 229.949 831.578 228.626C830.926 227.492 830.504 226.241 830.336 224.944L829.277 219.545C829.088 217.99 828.556 216.495 827.721 215.169C825.849 212.644 822.269 212.301 819.129 212.177L807.624 211.726C804.045 211.586 799.329 210.56 795.836 211.262C792.573 211.919 793.657 214.925 794.25 217.662C795.109 220.967 795.6 224.357 795.713 227.771V227.771Z" fill="#A0616A"/>
<path opacity="0.1" d="M795.713 227.771C795.112 233.125 791.028 237.438 789.515 242.61C787.237 250.393 791.175 258.746 796.563 264.807C800.91 269.647 806.174 273.576 812.05 276.366C817.927 279.156 824.299 280.752 830.797 281.062C832.705 281.23 834.629 281.02 836.457 280.445C838.089 279.788 839.558 278.784 840.763 277.502C844.82 273.428 846.998 267.784 847.866 262.1C848.734 256.416 848.397 250.626 848.057 244.886C848.059 243.7 847.843 242.523 847.421 241.414C846.868 240.358 846.108 239.424 845.187 238.667C842.266 235.987 839.048 233.65 835.597 231.701C834.037 231.001 832.661 229.949 831.578 228.626C830.926 227.492 830.504 226.241 830.336 224.944L829.277 219.545C829.088 217.99 828.556 216.495 827.721 215.169C825.849 212.644 822.269 212.301 819.129 212.177L807.624 211.726C804.045 211.586 799.329 210.56 795.836 211.262C792.573 211.919 793.657 214.925 794.25 217.662C795.109 220.967 795.6 224.357 795.713 227.771V227.771Z" fill="black"/>
<path d="M868.901 468.781C867.271 486.654 865.641 504.523 864.011 522.39C862.735 536.45 861.435 550.569 858.932 564.448C858.068 569.231 857.055 573.989 855.853 578.706C852.511 591.804 847.662 604.605 846.098 618.032C846.048 618.419 846.007 618.814 845.966 619.209C845.791 622.178 845.229 625.112 844.295 627.935C843.513 629.985 842.311 631.854 841.463 633.879C839.775 637.929 839.553 642.408 839.347 646.795C833.411 643.457 826.912 641.236 820.175 640.242C816.923 639.757 813.301 639.411 811.086 636.982C808.633 634.299 808.905 630.191 809.316 626.585C810.609 615.389 811.898 604.199 813.185 593.014C813.605 588.202 814.423 583.433 815.63 578.756C816.075 577.2 816.61 575.669 817.153 574.138C817.902 572.03 818.66 569.923 819.228 567.758C820.046 564.259 820.618 560.708 820.94 557.13C822.265 545.868 823.863 534.631 825.262 523.378L825.336 522.785C827.435 505.728 829.032 488.588 828.571 471.407C828.506 468.864 828.398 466.32 828.234 463.768C828.003 460.072 827.666 458.112 830.728 455.799C834.112 453.247 838.565 451.461 842.434 449.79C844.517 448.884 867.452 440.742 867.987 442.529C869.063 446.339 869.628 450.276 869.667 454.235C869.683 459.094 869.428 463.951 868.901 468.781Z" fill="#605D82"/>
<path opacity="0.1" d="M858.932 564.448C858.068 569.231 857.055 573.989 855.853 578.707C852.511 591.804 847.662 604.605 846.098 618.032C846.048 618.419 846.007 618.814 845.966 619.209C835.742 604.605 827.131 588.898 817.153 574.138C817.902 572.03 818.66 569.923 819.228 567.758C820.046 564.259 820.619 560.708 820.94 557.13C822.265 545.868 823.863 534.631 825.262 523.378L825.336 522.785C825.922 525.174 826.758 527.495 827.831 529.708C834.532 543.324 850.453 550.207 858.24 563.238C858.479 563.642 858.71 564.045 858.932 564.448Z" fill="black"/>
<path d="M775.967 444.719C776.305 455.64 778.053 466.462 779.797 477.248L783.397 499.501C785.367 511.681 787.418 524.109 793.182 535.017C797.493 543.178 803.705 550.141 809.325 557.462C823.14 575.461 833.519 595.849 846.619 614.375C850.427 619.76 855.869 625.583 862.368 624.459C866.633 623.721 869.731 620.17 873.083 617.432C877.036 614.204 881.799 611.842 884.909 607.796C888.019 603.75 888.628 597.025 884.415 594.146C882.891 593.302 881.272 592.639 879.593 592.173C873.061 589.689 868.834 583.311 866.144 576.861C863.454 570.412 861.824 563.477 858.24 557.479C850.453 544.447 834.529 537.565 827.827 523.944C824.073 516.315 823.715 507.522 823.428 499.025L822.696 477.362C822.616 474.994 822.554 472.53 823.517 470.364C826.081 464.598 833.822 464.061 840.09 463.33C847.204 462.496 854.095 460.322 860.4 456.922C864.01 454.972 867.537 452.487 869.468 448.867C871.231 445.564 871.474 441.691 871.68 437.953L873.851 398.695C874.037 395.318 874.208 391.826 873.017 388.659C870.028 380.709 859.989 378.111 851.503 378.49C835.713 379.196 821.137 385.988 806.249 390.575C802.561 391.739 798.817 392.715 795.031 393.501C791.69 394.172 787.646 393.894 784.459 394.968C778.792 396.879 778.936 409.272 778.132 414.413C776.473 424.426 775.748 434.572 775.967 444.719V444.719Z" fill="#605D82"/>
<path d="M860.224 626.105C861.616 627.509 862.071 629.566 862.434 631.51C864.445 642.293 865.491 653.234 865.56 664.202C865.467 665.226 865.671 666.254 866.148 667.164C866.541 667.707 867.072 668.134 867.686 668.4C871.711 670.318 876.381 667.645 879.735 664.708C885.951 659.262 891.211 651.953 891.564 643.697C891.499 641.57 891.574 639.442 891.787 637.325C892.333 634.216 894.148 631.508 895.748 628.787C898.469 624.156 900.665 619.235 902.293 614.116C902.904 612.192 903.311 609.77 901.804 608.428C901.269 608.009 900.662 607.694 900.012 607.497L881.834 600.747C880.258 600.162 876.338 610.231 875.716 611.332C874.194 614.025 872.681 615.554 869.628 616.175C866.511 616.81 862.801 615.899 859.893 617.454C854.974 620.084 857.438 623.296 860.224 626.105Z" fill="#535070"/>
<path d="M832.174 632.318C831.836 631.646 831.365 631.05 830.79 630.564C829.949 630.03 828.992 629.705 827.999 629.616C824.538 629.028 820.436 628.641 818.048 631.214C815.808 633.625 816.193 637.554 814.321 640.261C813.729 641.118 812.926 641.824 812.412 642.73C811.774 644.115 811.486 645.636 811.574 647.159C811.477 651.354 811.381 655.557 811.671 659.743C811.913 663.251 812.505 666.927 814.699 669.675C818.22 674.086 824.57 674.721 830.207 675.007L834.772 675.239C836.029 675.392 837.305 675.275 838.513 674.896C839.261 674.55 839.933 674.058 840.487 673.448C841.041 672.838 841.468 672.123 841.74 671.345C844.117 665.439 840.353 659.075 838.035 653.146C835.371 646.33 835.849 638.762 832.174 632.318Z" fill="#535070"/>
<path d="M794.39 197.6C794.334 197.001 794.422 196.398 794.647 195.84C795.316 194.658 797.062 194.979 798.379 195.311C803.676 196.647 809.257 195.438 814.71 195.75C820.164 196.062 826.307 198.788 827.403 204.14C831.362 201.333 834.774 197.827 837.472 193.794C838.986 191.529 840.305 188.935 840.099 186.219C839.802 182.301 836.514 179.37 833.471 176.886L824.397 169.479C823.207 168.384 821.831 167.51 820.335 166.896C818.24 166.18 815.955 166.521 813.741 166.522C807.136 166.527 800.094 163.521 794.22 166.54C791.766 167.802 789.919 169.963 788.139 172.071L780.041 181.657C779.431 182.267 778.986 183.023 778.747 183.852C778.516 185.022 779.117 186.176 779.327 187.35C779.709 189.492 778.787 191.777 779.496 193.834C780.673 197.248 784.819 197.731 787.353 199.689C788.297 200.418 789.778 202.89 790.903 202.86C792.934 202.806 794.338 199.178 794.39 197.6Z" fill="#3F3D56"/>
<path d="M808.131 225.856C822.452 225.856 834.062 214.246 834.062 199.925C834.062 185.603 822.452 173.993 808.131 173.993C793.809 173.993 782.199 185.603 782.199 199.925C782.199 214.246 793.809 225.856 808.131 225.856Z" fill="#A0616A"/>
<path d="M814.204 256.676C813.325 254.156 811.665 251.982 809.466 250.469C807.267 248.956 804.643 248.182 801.975 248.261C801.212 248.403 800.423 248.303 799.719 247.975C799.321 247.67 799.003 247.272 798.792 246.816C797.215 243.981 795.948 240.984 795.011 237.878C794.598 236.505 794.032 234.887 792.643 234.53C792.069 234.455 791.484 234.537 790.952 234.769C790.421 235 789.962 235.371 789.625 235.843C788.966 236.793 788.245 237.699 787.468 238.555C784.206 241.471 778.425 238.813 774.963 241.488C774.398 241.925 773.931 242.485 773.337 242.883C772.743 243.241 772.102 243.515 771.433 243.699C764.749 245.881 758.196 248.448 751.807 251.386C754.11 265.253 756.469 279.361 761.866 292.34C764.435 298.517 767.346 304.566 769.402 310.932C773.96 325.035 774.162 340.126 774.213 354.947C774.248 365.091 774.197 375.452 770.916 385.05C770.033 387.172 769.41 389.392 769.062 391.663C768.864 393.95 769.53 396.472 771.383 397.827C772.457 398.53 773.686 398.962 774.964 399.085C780.651 399.92 786.384 398.406 791.983 397.11C806.992 393.634 822.298 391.645 837.576 389.661L863.175 386.337C865.01 386.213 866.806 385.749 868.472 384.968C873.156 382.404 873.601 375.357 870.692 370.878C869.297 368.731 867.33 366.97 866.158 364.693C864.986 362.417 864.886 359.233 866.903 357.656C871.007 354.449 869.783 348.499 869.979 343.294C870.526 328.742 870.452 314.183 869.757 299.62C869.551 296.605 869.503 293.581 869.612 290.562C870.067 285.445 871.012 280.383 872.435 275.447L880.214 244.819C878.182 241.608 874.291 239.57 870.605 238.645C866.92 237.72 863.081 237.448 859.451 236.323C852.015 234.019 845.394 228.171 837.628 228.716C837.041 228.727 836.463 228.868 835.937 229.129C834.185 230.122 834.463 232.646 834.351 234.656C834.103 239.102 830.832 242.819 827.22 245.425C823.609 248.031 819.483 249.931 816.166 252.902C815.578 253.345 815.097 253.914 814.758 254.567C814.418 255.22 814.229 255.941 814.204 256.676V256.676Z" fill="#3F3D56"/>
<path d="M711.455 285.728C709.735 286.844 707.908 287.784 706 288.535C704.133 289.09 702.368 289.947 700.776 291.07C700.042 291.705 699.426 292.465 698.959 293.315C698.081 294.872 697.637 296.635 697.673 298.422C697.71 300.209 698.225 301.953 699.165 303.473C700.106 304.992 701.437 306.232 703.02 307.061C704.603 307.891 706.379 308.28 708.164 308.189C710.536 307.923 712.841 307.236 714.972 306.159L733.262 298.234C736.357 296.892 739.701 295.32 741.164 292.28C741.335 291.997 741.398 291.661 741.342 291.335C741.195 290.99 740.928 290.71 740.591 290.545C736.466 287.866 732.858 284.464 729.941 280.503C729.191 279.484 728.273 277.079 727.212 276.468C723.341 274.238 714.554 283.717 711.455 285.728Z" fill="#A0616A"/>
<path d="M906.982 279.225L913.726 286.928C915.173 288.581 916.622 290.237 917.942 291.994C921.182 296.46 923.782 301.357 925.665 306.544C927.131 310.39 928.347 314.487 927.835 318.571C927.495 320.664 926.93 322.715 926.148 324.687C924.913 328.48 923.381 332.17 921.567 335.723C920.041 338.422 918.317 341.005 916.41 343.45C911.19 350.369 905.477 356.904 899.317 363.002C897.011 365.284 896.045 368.974 895.041 372.059C893.19 377.749 888.786 382.18 884.527 386.382C883.158 387.828 881.645 389.129 880.012 390.267C877.565 391.843 874.706 392.657 871.796 392.607C870.522 392.616 869.261 392.355 868.095 391.841C865.181 390.457 863.699 387.087 863.396 383.874C863.124 380.959 863.613 378.024 864.814 375.354C868.683 366.782 878.62 363.068 885.643 356.814C889.762 353.146 892.911 348.54 896.017 343.983C898.127 341.138 899.889 338.051 901.264 334.787C902.833 330.601 902.222 325.647 903.592 321.392C904.172 319.594 905.202 317.97 905.824 316.186C906.447 314.403 906.604 312.285 905.514 310.742C904.693 309.761 903.645 308.994 902.461 308.507C897.975 306.229 892.949 303.299 892.091 298.341C891.748 295.591 892.467 292.815 894.1 290.577C895.727 288.368 897.628 286.376 899.758 284.647C901.72 282.912 905.02 280.96 906.982 279.225Z" fill="#A0616A"/>
<path d="M707.126 296.481C705.935 294.075 704.447 291.622 702.044 290.426C700.879 289.92 699.624 289.656 698.354 289.651C697.084 289.646 695.826 289.899 694.657 290.395C692.328 291.399 690.146 292.718 688.175 294.315L682.362 298.599C681.045 299.464 679.879 300.54 678.912 301.784C677.995 303.294 677.384 304.969 677.115 306.715C676.102 310.696 675.792 314.824 676.201 318.912C677.123 325.466 681.075 331.188 685.424 336.178C688.142 339.295 691.498 342.441 695.632 342.574C697.416 342.632 699.4 341.928 700.143 340.305C700.4 339.661 700.536 338.975 700.546 338.282C700.992 330.971 698.377 323.831 695.327 317.171C694.355 315.428 693.78 313.49 693.645 311.499C693.623 311.163 693.71 310.83 693.893 310.548C694.156 310.275 694.508 310.103 694.885 310.064C699.059 309.238 706.249 312.481 709.177 307.846C711.075 304.841 708.475 299.206 707.126 296.481Z" fill="#A0616A"/>
<path d="M793.03 189.44C792.975 188.842 793.063 188.238 793.287 187.68C793.956 186.498 795.702 186.82 797.019 187.152C802.316 188.487 807.897 187.278 813.35 187.59C818.804 187.902 824.947 190.629 826.043 195.98C830.002 193.174 833.414 189.668 836.112 185.635C837.626 183.37 838.945 180.775 838.739 178.059C838.442 174.141 835.154 171.211 832.111 168.726L823.037 161.319C821.847 160.225 820.471 159.35 818.975 158.736C816.88 158.02 814.595 158.361 812.381 158.363C805.776 158.367 798.734 155.361 792.86 158.381C790.406 159.642 788.559 161.803 786.779 163.911L778.681 173.497C778.071 174.108 777.626 174.863 777.387 175.692C777.156 176.862 777.757 178.017 777.967 179.191C778.349 181.332 777.427 183.618 778.136 185.674C779.313 189.088 783.459 189.572 785.993 191.529C786.937 192.259 788.418 194.731 789.543 194.701C791.574 194.646 792.978 191.018 793.03 189.44Z" fill="#3F3D56"/>
<path d="M737.954 260.505C736.907 261.18 735.988 262.036 735.24 263.032C734.289 264.469 734.096 266.284 733.279 267.802C731.531 271.049 727.444 272.204 724.894 274.869C724.489 275.235 724.207 275.718 724.088 276.251C724.076 276.974 724.318 277.678 724.773 278.241L737.07 297.572C741.164 297.933 745.092 295.368 749.188 295.708C750.717 295.835 752.282 296.364 753.749 295.912C754.799 295.446 755.783 294.844 756.675 294.122C759.119 292.577 762.374 292.397 764.424 290.358C766.391 288.402 766.642 285.341 766.619 282.566C766.652 280.157 766.406 277.752 765.888 275.398C764.077 267.978 758.402 262.284 754.845 255.711C753.113 252.511 752.17 250.638 748.504 252.835C744.819 255.043 741.422 257.969 737.954 260.505Z" fill="#3F3D56"/>
<path d="M887.295 250.729C889.606 252.229 891.69 254.054 893.482 256.147C895.355 258.563 896.416 261.519 898.215 263.99C899.96 266.385 902.334 268.24 904.312 270.445C907.313 273.79 909.345 277.871 911.341 281.896C906.466 288.254 901.151 294.261 895.435 299.873C894.798 300.623 893.96 301.174 893.019 301.461C892.38 301.529 891.733 301.437 891.137 301.195C890.541 300.952 890.015 300.565 889.605 300.069C888.719 299.14 888.092 297.995 887.245 297.03C885.247 294.968 882.584 293.68 879.727 293.394C876.896 293.12 874.047 293.081 871.209 293.276C870.586 293.346 869.956 293.24 869.39 292.971C868.969 292.68 868.628 292.289 868.398 291.832C865.068 286.167 866.139 279.054 867.314 272.589L870.009 257.754C870.4 254.92 871.154 252.149 872.252 249.508C873.273 247.327 875.556 243.627 878.363 244.28C881.192 244.938 884.915 249.016 887.295 250.729Z" fill="#3F3D56"/>
<path d="M393.954 348.141C416.598 348.141 434.954 329.751 434.954 307.066C434.954 284.381 416.598 265.991 393.954 265.991C371.311 265.991 352.954 284.381 352.954 307.066C352.954 329.751 371.311 348.141 393.954 348.141Z" fill="white"/>
<path d="M393.954 258.991C384.263 258.991 374.789 261.865 366.731 267.249C358.673 272.634 352.393 280.286 348.684 289.24C344.975 298.194 344.005 308.046 345.896 317.551C347.786 327.056 352.453 335.787 359.306 342.64C366.159 349.492 374.89 354.159 384.395 356.05C393.9 357.941 403.752 356.97 412.706 353.262C421.659 349.553 429.312 343.272 434.696 335.214C440.08 327.156 442.954 317.683 442.954 307.991C442.916 295.008 437.742 282.566 428.56 273.385C419.379 264.204 406.938 259.029 393.954 258.991V258.991ZM383.895 334.117L358.783 309.004L365.826 301.961L383.919 320.053L422.106 281.866L429.149 288.91L383.895 334.117L383.895 334.117Z" fill="#57B894"/>
<path opacity="0.1" d="M656.539 124.691C584.099 122.181 515.099 98.7906 449.219 73.2006C383.339 47.6106 318.069 19.2706 247.369 5.71061C201.889 -3.00939 149.879 -4.23938 113.239 20.1406C77.9992 43.5606 66.5792 84.1106 60.4592 121.691C55.8492 149.961 53.1392 179.691 65.7592 206.191C74.5292 224.571 90.0992 240.021 100.869 257.621C138.319 318.871 111.869 394.411 71.2492 454.211C52.2492 482.271 30.1192 509.031 15.4292 538.891C0.739246 568.751 -6.06075 602.981 6.78925 633.441C19.5392 663.641 49.8992 686.321 82.7892 702.271C149.599 734.671 228.329 743.951 305.099 749.201C475.039 760.821 645.889 755.791 816.279 750.751C879.339 748.881 942.669 746.991 1004.71 737.241C1039.15 731.831 1074.71 723.241 1099.71 702.491C1131.46 676.151 1139.33 631.551 1118.05 598.491C1082.37 543.101 983.699 529.341 958.759 469.891C945.029 437.171 959.129 400.711 979.079 370.371C1021.88 305.261 1093.62 248.141 1097.4 173.731C1100 122.621 1065.51 71.4306 1012.19 47.2506C956.289 21.9006 878.789 25.0906 837.549 67.0506C795.119 110.291 720.499 126.911 656.539 124.691Z" fill="#6C63FF"/>
</svg>
