<?xml version="1.0" standalone="no"?>
<!DOCTYPE svg PUBLIC "-//W3C//DTD SVG 20010904//EN"
 "http://www.w3.org/TR/2001/REC-SVG-20010904/DTD/svg10.dtd">
<svg version="1.0" xmlns="http://www.w3.org/2000/svg"
 width="800.000000pt" height="800.000000pt" viewBox="0 0 800.000000 800.000000"
 preserveAspectRatio="xMidYMid meet">

<g transform="translate(0.000000,800.000000) scale(0.100000,-0.100000)"
fill="#000000" stroke="none">
<path d="M1377 7985 c-341 -47 -657 -205 -907 -455 -254 -254 -409 -567 -455
-918 -22 -170 -22 -5054 0 -5224 46 -351 201 -664 455 -918 254 -254 567 -409
918 -455 170 -22 5054 -22 5224 0 351 46 664 201 918 455 254 254 409 567 455
918 22 170 22 5054 0 5224 -46 351 -201 664 -455 918 -202 202 -427 334 -700
411 -220 62 -89 59 -2843 58 -2038 -1 -2531 -4 -2610 -14z m2395 -1043 c32
-16 194 -177 621 -618 332 -342 587 -613 600 -637 17 -34 22 -59 22 -127 0
-75 -3 -91 -27 -131 -56 -96 -134 -141 -243 -143 -112 -1 -134 14 -350 235
-105 107 -252 257 -327 334 l-138 140 0 -987 0 -988 988 0 987 0 -145 143
c-80 78 -230 225 -334 326 -215 209 -236 241 -236 351 0 110 68 214 169 258
57 24 166 21 224 -7 34 -17 209 -179 643 -599 658 -638 646 -624 647 -745 1
-125 20 -103 -644 -746 -356 -345 -616 -590 -641 -603 -60 -32 -185 -32 -244
-1 -106 56 -157 139 -157 251 1 38 8 84 17 107 12 29 107 129 354 372 l337
332 -1155 1 -1155 0 -50 24 c-62 29 -107 76 -137 141 l-23 50 -3 1135 c-1 624
-3 1147 -5 1161 -2 22 -43 -17 -324 -307 -365 -376 -370 -379 -493 -379 -57 0
-85 6 -116 22 -105 56 -158 141 -158 254 0 118 -3 114 637 773 520 536 582
597 630 615 66 27 165 24 229 -7z m-1730 -1759 c96 -54 158 -170 144 -272 -11
-84 -52 -141 -266 -366 -113 -118 -205 -221 -205 -227 0 -11 1166 -1162 2246
-2218 l326 -319 207 219 c233 246 255 262 371 268 64 3 76 1 135 -30 72 -37
121 -96 141 -171 16 -61 7 -147 -22 -201 -14 -27 -154 -183 -338 -376 -354
-373 -369 -384 -490 -384 -120 1 -111 -7 -669 542 -279 274 -964 947 -1522
1495 -751 737 -1022 1009 -1040 1044 -20 38 -25 62 -25 123 0 61 5 84 25 122
25 48 634 698 692 739 80 57 201 62 290 12z"/>
</g>
</svg>
