<?xml version="1.0" encoding="utf-8"?>
<!-- Generator: Adobe Illustrator 23.0.6, SVG Export Plug-In . SVG Version: 6.00 Build 0)  -->
<svg version="1.1" id="Layer_1" xmlns="http://www.w3.org/2000/svg" xmlns:xlink="http://www.w3.org/1999/xlink" x="0px" y="0px"
	 viewBox="0 0 800 800" style="enable-background:new 0 0 800 800;" xml:space="preserve">
<style type="text/css">
	.st0{fill:#FFFFFF;}
	.st1{fill:#083142;}
</style>
<path class="st0" d="M137.7,1.5C103.6,6.2,72,22,47,47C21.6,72.4,6.1,103.7,1.5,138.8c-2.2,17-2.2,505.4,0,522.4
	C6.1,696.3,21.6,727.6,47,753s56.7,40.9,91.8,45.5c17,2.2,505.4,2.2,522.4,0c35.1-4.6,66.4-20.1,91.8-45.5
	c25.4-25.4,40.9-56.7,45.5-91.8c2.2-17,2.2-505.4,0-522.4c-4.6-35.1-20.1-66.4-45.5-91.8c-20.2-20.2-42.7-33.4-70-41.1
	c-22-6.2-8.9-5.9-284.3-5.8C194.9,0.2,145.6,0.5,137.7,1.5z"/>
<g>
	<path class="st1" d="M377.2,105.8c3.2,1.6,19.4,17.7,62.1,61.8c33.2,34.2,58.7,61.3,60,63.7c1.7,3.4,2.2,5.9,2.2,12.7
		c0,7.5-0.3,9.1-2.7,13.1c-5.6,9.6-13.4,14.1-24.3,14.3c-11.2,0.1-13.4-1.4-35-23.5c-10.5-10.7-25.2-25.7-32.7-33.4l-13.8-14v98.7
		V398h98.8h98.7L576,383.7c-8-7.8-23-22.5-33.4-32.6C521.1,330.2,519,327,519,316s6.8-21.4,16.9-25.8c5.7-2.4,16.6-2.1,22.4,0.7
		c3.4,1.7,20.9,17.9,64.3,59.9c65.8,63.8,64.6,62.4,64.7,74.5c0.1,12.5,2,10.3-64.4,74.6c-35.6,34.5-61.6,59-64.1,60.3
		c-6,3.2-18.5,3.2-24.4,0.1c-10.6-5.6-15.7-13.9-15.7-25.1c0.1-3.8,0.8-8.4,1.7-10.7c1.2-2.9,10.7-12.9,35.4-37.2l33.7-33.2L474,454
		H358.5l-5-2.4c-6.2-2.9-10.7-7.6-13.7-14.1l-2.3-5L337.2,319c-0.1-62.4-0.3-114.7-0.5-116.1c-0.2-2.2-4.3,1.7-32.4,30.7
		c-36.5,37.6-37,37.9-49.3,37.9c-5.7,0-8.5-0.6-11.6-2.2c-10.5-5.6-15.8-14.1-15.8-25.4c0-11.8-0.3-11.4,63.7-77.3
		c52-53.6,58.2-59.7,63-61.5C360.9,102.4,370.8,102.7,377.2,105.8z"/>
	<path class="st1" d="M204.2,281.7c9.6,5.4,15.8,17,14.4,27.2c-1.1,8.4-5.2,14.1-26.6,36.6c-11.3,11.8-20.5,22.1-20.5,22.7
		c0,1.1,116.6,116.2,224.6,221.8l32.6,31.9l20.7-21.9c23.3-24.6,25.5-26.2,37.1-26.8c6.4-0.3,7.6-0.1,13.5,3
		c7.2,3.7,12.1,9.6,14.1,17.1c1.6,6.1,0.7,14.7-2.2,20.1c-1.4,2.7-15.4,18.3-33.8,37.6c-35.4,37.3-36.9,38.4-49,38.4
		c-12-0.1-11.1,0.7-66.9-54.2c-27.9-27.4-96.4-94.7-152.2-149.5C134.9,412,107.8,384.8,106,381.3c-2-3.8-2.5-6.2-2.5-12.3
		s0.5-8.4,2.5-12.2c2.5-4.8,63.4-69.8,69.2-73.9C183.2,277.2,195.3,276.7,204.2,281.7z"/>
</g>
</svg>
